#Comment line ignore any data following # character 
#Hierarchical Translation and Rotation (.htr) file 
[Header]	
#Header keywords are followed by a single value 
FileType HTR		#Single word string
DataType HTRS		#Translation followed by rotation and scale data
FileVersion 1		#integer
NumSegments 84		#integer
NumFrames 2		#integer
DataFrameRate 30		#integer, data frame rate in this file
EulerRotationOrder ZYX
CalibrationUnits mm
RotationUnits Degrees
GlobalAxisofGravity Y
BoneLengthAxis Y
ScaleFactor 1.00
[SegmentNames&Hierarchy]
#CHILD	PARENT
MASTER GLOBAL
root MASTER
chest root
L_mid_tent01 root
R_mid_tent01 root
spine01 root
Bip01_Neck chest
L_humerus chest
R_humerus chest
weapon_bone chest
Bip01_Head Bip01_Neck
eye_left_bone Bip01_Head
eye_right_bone Bip01_Head
L_forearm L_humerus
L_front_hand L_forearm
L_weapon_bone L_forearm
L_front_hand01_01 L_front_hand
L_front_hand02_01 L_front_hand
L_front_hand03_01 L_front_hand
L_front_hand01_02 L_front_hand01_01
L_front_hand02_02 L_front_hand02_01
L_front_hand03_02 L_front_hand03_01
R_forearm R_humerus
R_front_hand R_forearm
R_weapon_bone R_forearm
R_front_hand01_01 R_front_hand
R_front_hand02_01 R_front_hand
R_front_hand03_01 R_front_hand
R_front_hand01_02 R_front_hand01_01
R_front_hand02_02 R_front_hand02_01
R_front_hand03_02 R_front_hand03_01
null_rope01_connect L_mid_tent01
Rope1_Seg01 null_rope01_connect
Rope1_Seg02 Rope1_Seg01
Rope1_Seg03 Rope1_Seg02
Rope1_Seg04 Rope1_Seg03
Rope1_Seg05 Rope1_Seg04
Rope1_Seg06 Rope1_Seg05
Rope1_Seg07 Rope1_Seg06
Rope1_Seg09 Rope1_Seg07
L_mid_hand01 Rope1_Seg09
L_mid_hand02 Rope1_Seg09
L_mid_hand03 Rope1_Seg09
null_rope02_connect R_mid_tent01
Rope2_Seg01 null_rope02_connect
Rope2_Seg02 Rope2_Seg01
Rope2_Seg03 Rope2_Seg02
Rope2_Seg04 Rope2_Seg03
Rope2_Seg05 Rope2_Seg04
Rope2_Seg06 Rope2_Seg05
Rope2_Seg07 Rope2_Seg06
Rope2_Seg09 Rope2_Seg07
R_mid_hand01 Rope2_Seg09
R_mid_hand02 Rope2_Seg09
R_mid_hand03 Rope2_Seg09
spine02 spine01
spine03 spine02
pelvis spine03
null_rope03_connect pelvis
null_rope04_connect pelvis
Rope3_Seg01 null_rope03_connect
Rope3_Seg02 Rope3_Seg01
Rope3_Seg03 Rope3_Seg02
Rope3_Seg04 Rope3_Seg03
Rope3_Seg05 Rope3_Seg04
Rope3_Seg06 Rope3_Seg05
Rope3_Seg07 Rope3_Seg06
Rope3_Seg08 Rope3_Seg07
Rope3_Seg09 Rope3_Seg08
R_rear_hand01 Rope3_Seg09
R_rear_hand02 Rope3_Seg09
R_rear_hand03 Rope3_Seg09
Rope4_Seg01 null_rope04_connect
Rope4_Seg02 Rope4_Seg01
Rope4_Seg03 Rope4_Seg02
Rope4_Seg04 Rope4_Seg03
Rope4_Seg05 Rope4_Seg04
Rope4_Seg06 Rope4_Seg05
Rope4_Seg07 Rope4_Seg06
Rope4_Seg08 Rope4_Seg07
Rope4_Seg09 Rope4_Seg08
L_rear_hand01 Rope4_Seg09
L_rear_hand02 Rope4_Seg09
L_rear_hand03 Rope4_Seg09
[BasePosition]
#SegmentName Tx, Ty, Tz, Rx, Ry, Rz, BoneLength
MASTER 0.000000 0.000000 0.000000 -90.000000 0.000000 0.000000 10.000000 
root 0.000000 0.000000 0.000000 0.000000 0.000000 0.000000 10.000000 
chest 0.000000 0.000000 0.000000 0.000000 0.000000 0.000000 10.000000 
L_mid_tent01 0.000000 0.000000 0.000000 0.000000 0.000000 0.000000 10.000000 
R_mid_tent01 0.000000 0.000000 0.000000 0.000000 0.000000 0.000000 10.000000 
spine01 0.000000 0.000000 0.000000 0.000000 0.000000 0.000000 10.000000 
Bip01_Neck 0.000000 0.000000 0.000000 0.000000 0.000000 0.000000 10.000000 
L_humerus 0.000000 0.000000 0.000000 0.000000 0.000000 0.000000 10.000000 
R_humerus 0.000000 0.000000 0.000000 0.000000 0.000000 0.000000 10.000000 
weapon_bone 0.000000 0.000000 0.000000 0.000000 0.000000 0.000000 10.000000 
Bip01_Head 0.000000 0.000000 0.000000 0.000000 0.000000 0.000000 10.000000 
eye_left_bone 0.000000 0.000000 0.000000 0.000000 0.000000 0.000000 10.000000 
eye_right_bone 0.000000 0.000000 0.000000 0.000000 0.000000 0.000000 10.000000 
L_forearm 0.000000 0.000000 0.000000 0.000000 0.000000 0.000000 10.000000 
L_front_hand 0.000000 0.000000 0.000000 0.000000 0.000000 0.000000 10.000000 
L_weapon_bone 0.000000 0.000000 0.000000 0.000000 0.000000 0.000000 10.000000 
L_front_hand01_01 0.000000 0.000000 0.000000 0.000000 0.000000 0.000000 10.000000 
L_front_hand02_01 0.000000 0.000000 0.000000 0.000000 0.000000 0.000000 10.000000 
L_front_hand03_01 0.000000 0.000000 0.000000 0.000000 0.000000 0.000000 10.000000 
L_front_hand01_02 0.000000 0.000000 0.000000 0.000000 0.000000 0.000000 10.000000 
L_front_hand02_02 0.000000 0.000000 0.000000 0.000000 0.000000 0.000000 10.000000 
L_front_hand03_02 0.000000 0.000000 0.000000 0.000000 0.000000 0.000000 10.000000 
R_forearm 0.000000 0.000000 0.000000 0.000000 0.000000 0.000000 10.000000 
R_front_hand 0.000000 0.000000 0.000000 0.000000 0.000000 0.000000 10.000000 
R_weapon_bone 0.000000 0.000000 0.000000 0.000000 0.000000 0.000000 10.000000 
R_front_hand01_01 0.000000 0.000000 0.000000 0.000000 0.000000 0.000000 10.000000 
R_front_hand02_01 0.000000 0.000000 0.000000 0.000000 0.000000 0.000000 10.000000 
R_front_hand03_01 0.000000 0.000000 0.000000 0.000000 0.000000 0.000000 10.000000 
R_front_hand01_02 0.000000 0.000000 0.000000 0.000000 0.000000 0.000000 10.000000 
R_front_hand02_02 0.000000 0.000000 0.000000 0.000000 0.000000 0.000000 10.000000 
R_front_hand03_02 0.000000 0.000000 0.000000 0.000000 0.000000 0.000000 10.000000 
null_rope01_connect 0.000000 0.000000 0.000000 0.000000 0.000000 0.000000 10.000000 
Rope1_Seg01 0.000000 0.000000 0.000000 0.000000 0.000000 0.000000 10.000000 
Rope1_Seg02 0.000000 0.000000 0.000000 0.000000 0.000000 0.000000 10.000000 
Rope1_Seg03 0.000000 0.000000 0.000000 0.000000 0.000000 0.000000 10.000000 
Rope1_Seg04 0.000000 0.000000 0.000000 0.000000 0.000000 0.000000 10.000000 
Rope1_Seg05 0.000000 0.000000 0.000000 0.000000 0.000000 0.000000 10.000000 
Rope1_Seg06 0.000000 0.000000 0.000000 0.000000 0.000000 0.000000 10.000000 
Rope1_Seg07 0.000000 0.000000 0.000000 0.000000 0.000000 0.000000 10.000000 
Rope1_Seg09 0.000000 0.000000 0.000000 0.000000 0.000000 0.000000 10.000000 
L_mid_hand01 0.000000 0.000000 0.000000 0.000000 0.000000 0.000000 10.000000 
L_mid_hand02 0.000000 0.000000 0.000000 0.000000 0.000000 0.000000 10.000000 
L_mid_hand03 0.000000 0.000000 0.000000 0.000000 0.000000 0.000000 10.000000 
null_rope02_connect 0.000000 0.000000 0.000000 0.000000 0.000000 0.000000 10.000000 
Rope2_Seg01 0.000000 0.000000 0.000000 0.000000 0.000000 0.000000 10.000000 
Rope2_Seg02 0.000000 0.000000 0.000000 0.000000 0.000000 0.000000 10.000000 
Rope2_Seg03 0.000000 0.000000 0.000000 0.000000 0.000000 0.000000 10.000000 
Rope2_Seg04 0.000000 0.000000 0.000000 0.000000 0.000000 0.000000 10.000000 
Rope2_Seg05 0.000000 0.000000 0.000000 0.000000 0.000000 0.000000 10.000000 
Rope2_Seg06 0.000000 0.000000 0.000000 0.000000 0.000000 0.000000 10.000000 
Rope2_Seg07 0.000000 0.000000 0.000000 0.000000 0.000000 0.000000 10.000000 
Rope2_Seg09 0.000000 0.000000 0.000000 0.000000 0.000000 0.000000 10.000000 
R_mid_hand01 0.000000 0.000000 0.000000 0.000000 0.000000 0.000000 10.000000 
R_mid_hand02 0.000000 0.000000 0.000000 0.000000 0.000000 0.000000 10.000000 
R_mid_hand03 0.000000 0.000000 0.000000 0.000000 0.000000 0.000000 10.000000 
spine02 0.000000 0.000000 0.000000 0.000000 0.000000 0.000000 10.000000 
spine03 0.000000 0.000000 0.000000 0.000000 0.000000 0.000000 10.000000 
pelvis 0.000000 0.000000 0.000000 0.000000 0.000000 0.000000 10.000000 
null_rope03_connect 0.000000 0.000000 0.000000 0.000000 0.000000 0.000000 10.000000 
null_rope04_connect 0.000000 0.000000 0.000000 0.000000 0.000000 0.000000 10.000000 
Rope3_Seg01 0.000000 0.000000 0.000000 0.000000 0.000000 0.000000 10.000000 
Rope3_Seg02 0.000000 0.000000 0.000000 0.000000 0.000000 0.000000 10.000000 
Rope3_Seg03 0.000000 0.000000 0.000000 0.000000 0.000000 0.000000 10.000000 
Rope3_Seg04 0.000000 0.000000 0.000000 0.000000 0.000000 0.000000 10.000000 
Rope3_Seg05 0.000000 0.000000 0.000000 0.000000 0.000000 0.000000 10.000000 
Rope3_Seg06 0.000000 0.000000 0.000000 0.000000 0.000000 0.000000 10.000000 
Rope3_Seg07 0.000000 0.000000 0.000000 0.000000 0.000000 0.000000 10.000000 
Rope3_Seg08 0.000000 0.000000 0.000000 0.000000 0.000000 0.000000 10.000000 
Rope3_Seg09 0.000000 0.000000 0.000000 0.000000 0.000000 0.000000 10.000000 
R_rear_hand01 0.000000 0.000000 0.000000 0.000000 0.000000 0.000000 10.000000 
R_rear_hand02 0.000000 0.000000 0.000000 0.000000 0.000000 0.000000 10.000000 
R_rear_hand03 0.000000 0.000000 0.000000 0.000000 0.000000 0.000000 10.000000 
Rope4_Seg01 0.000000 0.000000 0.000000 0.000000 0.000000 0.000000 10.000000 
Rope4_Seg02 0.000000 0.000000 0.000000 0.000000 0.000000 0.000000 10.000000 
Rope4_Seg03 0.000000 0.000000 0.000000 0.000000 0.000000 0.000000 10.000000 
Rope4_Seg04 0.000000 0.000000 0.000000 0.000000 0.000000 0.000000 10.000000 
Rope4_Seg05 0.000000 0.000000 0.000000 0.000000 0.000000 0.000000 10.000000 
Rope4_Seg06 0.000000 0.000000 0.000000 0.000000 0.000000 0.000000 10.000000 
Rope4_Seg07 0.000000 0.000000 0.000000 0.000000 0.000000 0.000000 10.000000 
Rope4_Seg08 0.000000 0.000000 0.000000 0.000000 0.000000 0.000000 10.000000 
Rope4_Seg09 0.000000 0.000000 0.000000 0.000000 0.000000 0.000000 10.000000 
L_rear_hand01 0.000000 0.000000 0.000000 0.000000 0.000000 0.000000 10.000000 
L_rear_hand02 0.000000 0.000000 0.000000 0.000000 0.000000 0.000000 10.000000 
L_rear_hand03 0.000000 0.000000 0.000000 0.000000 0.000000 0.000000 10.000000 
#Beginning of Data. Separated by tabs
#Fr	Tx	Ty	Tz	Rx	Ry	Rz	SF
[MASTER]
25 0.000000 0.000000 0.000000 0.001660 0.001660 0.001660 0.000000
26 0.000000 0.000000 0.000000 0.001660 0.001660 0.001660 0.000000
[root]
25 -16.502304 9.026885 1448.561279 -91.035820 -12.695331 -89.949341 1448.683350
26 -16.502304 9.364137 1448.320068 -91.728912 -11.584503 -89.471642 1448.444336
[chest]
25 -84.512650 -34.090519 0.000000 -0.020442 0.110998 172.554733 91.129311
26 -84.512650 -34.090519 0.000000 -2.170494 -0.006436 168.239609 91.129311
[L_mid_tent01]
25 27.299124 22.179068 -249.918671 -18.568031 19.441647 24.638470 252.381653
26 27.299118 22.179106 -249.918686 -20.661398 12.026046 12.983024 252.381668
[R_mid_tent01]
25 23.228794 24.509907 226.238495 -166.506546 -19.425171 26.575798 228.744751
26 23.228794 24.509907 226.238495 -165.192215 -17.956036 24.056789 228.744751
[spine01]
25 -0.361383 -0.195265 0.000000 0.001944 0.001315 21.841959 0.410763
26 -0.361383 -0.195265 0.000000 0.001947 0.001312 22.051847 0.410763
[Bip01_Neck]
25 165.484543 71.581718 0.000119 176.643677 -1.657967 43.431911 180.302734
26 165.484543 71.581718 0.000119 176.643677 -1.657967 43.431919 180.302734
[L_humerus]
25 -13.983130 -135.272980 -120.471481 -3.085601 73.172798 87.136330 181.680161
26 -13.983130 -135.272980 -120.471481 -5.480137 68.873428 84.573517 181.680161
[R_humerus]
25 -13.983309 -135.273102 125.287651 30.730808 -74.318527 64.839844 184.909012
26 -13.983309 -135.273102 125.287651 27.897175 -69.888847 67.752357 184.909012
[weapon_bone]
25 235.964890 -300.705902 0.000000 0.000000 -89.951546 -128.212341 382.234833
26 235.964890 -300.705902 0.000000 0.000000 -89.951546 -128.212341 382.234833
[Bip01_Head]
25 213.444138 185.715561 11.776942 4.962490 2.797846 -43.898743 283.173767
26 213.444122 185.715561 11.776943 4.962491 2.797846 -43.898750 283.173737
[eye_left_bone]
25 -24.626970 125.451866 -64.772606 0.000000 -90.000000 -99.840431 143.318359
26 -24.626970 125.451866 -64.772606 0.000000 -90.000000 -99.840431 143.318359
[eye_right_bone]
25 -24.626970 125.451866 64.327362 0.000000 -89.965736 80.156380 143.117676
26 -24.626970 125.451866 64.327362 0.000000 -90.000000 80.156387 143.117676
[L_forearm]
25 322.776093 0.000000 -0.000119 0.000160 -0.002342 -97.837624 322.776093
26 322.776093 0.000000 -0.000119 0.000396 -0.002314 -109.419975 322.776093
[L_front_hand]
25 241.149185 -0.042021 -3.300071 31.508821 -1.833293 -27.424952 241.171753
26 241.149185 -0.042021 -3.300071 31.508821 -1.833293 -27.424952 241.171753
[L_weapon_bone]
25 156.183838 0.000000 0.000000 0.000014 0.000007 0.000001 156.183838
26 156.183838 0.000000 0.000000 0.000014 0.000007 0.000001 156.183838
[L_front_hand01_01]
25 86.095154 20.947098 -0.655860 -0.366594 -0.477154 75.385574 88.609184
26 86.095154 20.947098 -0.655860 -0.366594 -0.477154 75.385582 88.609184
[L_front_hand02_01]
25 86.935165 -11.437475 24.513514 154.399796 -59.883835 -61.369587 91.046425
26 86.935165 -11.437475 24.513514 154.399826 -59.883846 -61.369614 91.046425
[L_front_hand03_01]
25 86.637497 -14.123976 -20.424902 -153.913849 58.118122 -62.702866 90.126129
26 86.637497 -14.123976 -20.424902 -153.913864 58.118141 -62.702885 90.126129
[L_front_hand01_02]
25 71.020905 -0.000179 0.000030 0.000334 -0.002323 -106.379684 71.020905
26 71.020905 -0.000179 0.000030 0.000334 -0.002323 -106.379700 71.020905
[L_front_hand02_02]
25 71.020927 -0.000119 0.000060 0.000334 -0.002323 -106.379684 71.020927
26 71.020927 -0.000119 0.000060 0.000334 -0.002323 -106.379700 71.020927
[L_front_hand03_02]
25 71.020905 -0.000060 0.000060 0.000334 -0.002323 -106.379684 71.020905
26 71.020905 -0.000060 0.000060 0.000334 -0.002323 -106.379700 71.020905
[R_forearm]
25 322.776428 -0.000060 0.000030 0.212460 0.020860 -96.842888 322.776428
26 322.776428 -0.000060 0.000030 0.202103 0.065158 -108.062820 322.776428
[R_front_hand]
25 238.847015 -0.006795 2.210259 -8.879457 -10.642941 -26.315098 238.857239
26 238.847015 -0.006795 2.210259 -8.879459 -10.642942 -26.315102 238.857239
[R_weapon_bone]
25 155.664093 0.002503 -0.000030 0.003487 0.001180 -90.988930 155.664078
26 155.664093 0.002503 -0.000030 0.003487 0.001180 -90.988930 155.664078
[R_front_hand01_01]
25 87.624611 14.231146 22.918642 -154.633499 -59.950619 61.746044 91.683487
26 87.624611 14.231146 22.918642 -154.633499 -59.950634 61.746063 91.683487
[R_front_hand02_01]
25 89.356956 14.367283 -19.491137 154.602661 58.302849 63.744389 92.579636
26 89.356956 14.367283 -19.491137 154.602676 58.302864 63.744400 92.579636
[R_front_hand03_01]
25 87.286232 -22.307278 -0.143439 0.162155 -0.423168 -75.767921 90.091743
26 87.286232 -22.307278 -0.143439 0.162155 -0.423168 -75.767921 90.091743
[R_front_hand01_02]
25 71.020905 0.000060 0.000119 0.002323 -0.000334 106.381714 71.020905
26 71.020905 0.000060 0.000119 0.002323 -0.000334 106.381729 71.020905
[R_front_hand02_02]
25 71.020844 -0.000030 -0.000119 0.002323 -0.000334 106.381714 71.020836
26 71.020844 -0.000030 -0.000119 0.002323 -0.000334 106.381729 71.020836
[R_front_hand03_02]
25 71.020905 0.000000 0.000030 0.002323 -0.000334 106.381714 71.020905
26 71.020905 0.000000 0.000030 0.002323 -0.000334 106.381729 71.020905
[null_rope01_connect]
25 328.732483 0.000000 -0.000238 -147.972061 -62.421497 -137.083435 328.732483
26 328.732483 0.000000 -0.000238 -154.483353 -64.791336 -118.914322 328.732483
[Rope1_Seg01]
25 -0.000002 -0.000003 0.000006 43.418205 -2.446195 -117.660530 0.000007
26 0.000000 0.000000 0.000000 61.626873 4.007575 -125.308868 0.000000
[Rope1_Seg02]
25 139.999863 -0.000179 0.000000 -9.401420 4.165262 2.395346 139.999863
26 139.999863 -0.000179 0.000000 -15.919137 5.674582 2.192836 139.999863
[Rope1_Seg03]
25 139.999924 0.000060 -0.000060 -9.537605 3.990270 2.578964 139.999924
26 139.999924 0.000060 -0.000060 -18.773439 5.794733 3.390499 139.999924
[Rope1_Seg04]
25 139.999924 -0.000060 -0.000119 -10.766604 3.872356 3.882347 139.999924
26 139.999924 -0.000060 -0.000119 -20.518019 5.396455 6.158432 139.999924
[Rope1_Seg05]
25 139.999832 0.000119 -0.000060 -5.368281 -0.454326 5.282947 139.999832
26 139.999832 0.000119 -0.000060 -2.133158 -4.206897 6.295166 139.999832
[Rope1_Seg06]
25 139.999954 0.000119 -0.000060 -1.706574 -0.747746 2.501000 139.999954
26 139.999954 0.000119 -0.000060 0.438852 -2.754158 2.603436 139.999954
[Rope1_Seg07]
25 139.999985 0.000060 0.000000 -1.124011 -0.231604 1.433348 139.999985
26 139.999985 0.000060 0.000000 -0.434135 -1.070409 1.642880 139.999985
[Rope1_Seg09]
25 121.602913 0.000119 -0.000089 -89.793175 -1.359789 0.847147 121.602913
26 121.602913 0.000119 -0.000089 -89.793175 -1.359789 0.847147 121.602913
[L_mid_hand01]
25 103.859421 1.038730 8.195221 121.913727 -62.028774 -29.342213 104.187431
26 103.859421 1.038730 8.195221 124.908302 -64.325752 -32.698193 104.187431
[L_mid_hand02]
25 105.572853 -4.139662 -10.864139 -162.798126 41.730766 -64.459190 106.211075
26 105.572853 -4.139662 -10.864139 -165.192169 42.484806 -68.028923 106.211075
[L_mid_hand03]
25 104.641464 17.579376 -3.913581 -8.147992 16.962017 67.754333 106.179977
26 104.641464 17.579376 -3.913581 -7.308159 17.330339 70.609505 106.179977
[null_rope02_connect]
25 328.732849 0.000179 -0.000119 -138.454254 67.374069 -32.140244 328.732849
26 328.732849 0.000179 -0.000119 -140.208801 68.099243 -35.150642 328.732849
[Rope2_Seg01]
25 0.000095 0.000153 0.000073 37.679203 -1.816277 -47.680088 0.000194
26 0.000095 0.000153 0.000076 31.320677 2.431920 -44.695446 0.000195
[Rope2_Seg02]
25 139.999741 -0.000060 -0.000119 25.113901 -5.801276 -9.466063 139.999756
26 139.999741 -0.000060 -0.000119 33.205448 -6.473628 -10.383106 139.999756
[Rope2_Seg03]
25 140.000107 0.000030 0.000000 10.172602 -3.687133 -3.943767 140.000107
26 140.000107 0.000030 0.000000 10.898497 -5.312218 -3.191352 140.000107
[Rope2_Seg04]
25 139.999802 0.000000 -0.000060 9.580110 -9.358994 -2.706501 139.999802
26 139.999802 0.000000 -0.000060 9.245096 -10.169507 -1.978405 139.999802
[Rope2_Seg05]
25 139.999985 -0.000060 0.000119 4.507298 -11.078870 0.280384 139.999985
26 139.999985 -0.000060 0.000119 4.409793 -11.169982 0.465378 139.999985
[Rope2_Seg06]
25 139.999893 -0.000030 -0.000119 1.432952 -5.184013 0.426953 139.999893
26 139.999893 -0.000030 -0.000119 1.356939 -5.254711 0.568204 139.999893
[Rope2_Seg07]
25 139.999893 0.000060 -0.000060 0.691878 -3.012365 0.280321 139.999893
26 139.999893 0.000060 -0.000060 0.639631 -3.057324 0.380391 139.999893
[Rope2_Seg09]
25 121.338966 0.000089 -0.000060 33.793236 -1.359788 -0.847141 121.338966
26 121.338966 0.000089 -0.000060 33.793236 -1.359788 -0.847141 121.338966
[R_mid_hand01]
25 104.680779 11.144459 -10.335981 -32.351292 36.833485 46.151878 105.778534
26 104.680779 11.144459 -10.335981 -29.839331 38.782547 50.244728 105.778534
[R_mid_hand02]
25 104.070427 2.443552 8.231699 67.067337 -50.463928 18.609619 104.424065
26 104.070427 2.443552 8.231699 65.096100 -53.911839 21.097569 104.424065
[R_mid_hand03]
25 106.028137 -11.221827 -5.996406 -171.852570 13.596703 -55.941753 106.788818
26 106.028137 -11.221827 -5.996406 -172.771393 14.103966 -59.790874 106.788818
[spine02]
25 129.756927 0.001550 0.000119 0.302856 -4.055257 -12.116548 129.756927
26 129.756927 0.001550 0.000119 0.360061 -4.044798 -12.915060 129.756927
[spine03]
25 78.614059 0.081781 -4.899003 1.862371 3.856888 15.977486 78.766594
26 78.614067 0.081635 -4.899006 1.896495 3.831288 16.473051 78.766602
[pelvis]
25 169.435242 0.051022 0.000000 -0.058881 -0.180749 13.081839 169.435257
26 169.435242 0.051022 0.000000 -0.060465 -0.180225 14.087932 169.435257
[null_rope03_connect]
25 -1.257226 -2.466202 137.391083 0.000000 -89.874886 63.922928 137.418976
26 -1.257226 -2.466202 137.391083 156.330505 -89.382614 -94.432030 137.418976
[null_rope04_connect]
25 -1.259640 -2.480268 -137.844437 0.000000 -89.874886 63.922928 137.872513
26 -1.259640 -2.480268 -137.844437 156.330505 -89.382614 -94.432030 137.872513
[Rope3_Seg01]
25 -0.000029 0.000000 -0.000146 -135.968582 32.148476 -83.662834 0.000149
26 -0.000029 0.000000 -0.000153 -136.365417 33.435535 -83.850166 0.000155
[Rope3_Seg02]
25 139.999924 -0.000119 0.000060 0.636207 1.265236 -3.023599 139.999924
26 139.999924 -0.000119 0.000060 0.509953 0.715607 -2.577097 139.999924
[Rope3_Seg03]
25 139.999924 -0.000119 0.000119 0.562506 1.323982 -3.276481 139.999924
26 139.999924 -0.000119 0.000119 0.485648 0.795959 -2.972700 139.999924
[Rope3_Seg04]
25 139.999924 0.000119 0.000000 0.559768 2.004227 -7.185486 139.999924
26 139.999924 0.000119 0.000000 0.513424 0.795760 -6.923190 139.999924
[Rope3_Seg05]
25 139.999924 -0.000238 0.000060 0.275056 1.218890 -2.201457 139.999924
26 139.999924 -0.000238 0.000060 0.270695 1.164506 -2.246144 139.999924
[Rope3_Seg06]
25 139.999893 -0.000119 -0.000060 -0.191643 -0.570006 7.951873 139.999893
26 139.999893 -0.000119 -0.000060 0.059103 1.162646 8.090651 139.999893
[Rope3_Seg07]
25 139.999771 0.000060 -0.000119 -0.278205 -0.449971 5.692681 139.999771
26 139.999771 0.000060 -0.000119 0.093220 0.695895 4.479294 139.999771
[Rope3_Seg08]
25 139.999985 -0.000060 0.000000 0.112880 -0.114635 2.558680 139.999985
26 139.999985 -0.000060 0.000000 0.311087 0.426400 2.065299 139.999985
[Rope3_Seg09]
25 90.185997 -0.000179 -0.000060 89.793228 -1.359877 -0.847183 90.185997
26 90.185997 -0.000179 -0.000060 89.793228 -1.359877 -0.847183 90.185997
[R_rear_hand01]
25 103.366196 -6.073594 -10.757982 -169.183289 22.304337 -52.678299 104.101845
26 103.366196 -6.073594 -10.757982 -170.781860 22.977873 -56.828880 104.101845
[R_rear_hand02]
25 100.509819 12.039542 -7.992327 -25.326168 30.360594 49.900978 101.543350
26 100.509819 12.039542 -7.992327 -23.183945 31.963852 54.048759 101.543350
[R_rear_hand03]
25 101.539970 5.215704 5.435467 80.575394 -52.733402 11.389222 101.819031
26 101.539970 5.215704 5.435467 79.633430 -56.562870 12.541145 101.819031
[Rope4_Seg01]
25 -0.000029 0.000000 -0.000146 41.649635 17.063984 -126.381462 0.000149
26 -0.000029 0.000000 -0.000153 40.872314 17.379320 -128.007523 0.000155
[Rope4_Seg02]
25 139.999985 0.000060 0.000119 0.188937 9.035365 3.499829 139.999985
26 139.999985 0.000060 0.000119 0.141125 9.260117 3.437306 139.999985
[Rope4_Seg03]
25 139.999924 0.000000 -0.000238 0.433188 10.701236 4.180956 139.999924
26 139.999924 0.000000 -0.000238 0.444236 11.337244 4.256325 139.999924
[Rope4_Seg04]
25 139.999985 0.000000 0.000119 1.419068 17.744379 8.038557 139.999985
26 139.999985 0.000000 0.000119 1.599275 18.791157 8.394875 139.999985
[Rope4_Seg05]
25 139.999802 -0.000060 -0.000119 0.874993 10.145151 3.848664 139.999802
26 139.999802 -0.000060 -0.000119 1.110154 11.318512 4.158219 139.999802
[Rope4_Seg06]
25 139.999924 0.000000 0.000060 1.372981 -8.064956 -5.506667 139.999924
26 139.999924 0.000000 0.000060 1.668364 -7.858769 -5.831728 139.999924
[Rope4_Seg07]
25 139.999802 0.000000 0.000000 1.254306 -11.467889 -6.813877 139.999802
26 139.999802 0.000000 0.000000 1.432698 -11.534993 -7.156862 139.999802
[Rope4_Seg08]
25 139.999924 0.000000 0.000119 -1.249176 -3.860819 -2.539721 139.999924
26 139.999924 0.000000 0.000119 -1.197983 -3.757080 -2.661238 139.999924
[Rope4_Seg09]
25 90.185791 0.000060 0.000060 -135.617828 2.228885 0.850567 90.185791
26 90.185791 0.000060 0.000060 -135.617828 2.228885 0.850567 90.185791
[L_rear_hand01]
25 101.696655 -8.392275 -7.654577 -17.798229 -35.006115 116.214783 102.329041
26 101.696655 -8.392275 -7.654577 -16.229393 -35.681824 113.503822 102.329041
[L_rear_hand02]
25 102.726799 -1.568258 5.773216 76.414986 65.052948 163.777969 102.900848
26 102.726799 -1.568258 5.773216 75.121323 67.292465 162.363403 102.900848
[L_rear_hand03]
25 104.552910 9.721220 -10.420293 -174.535919 -24.090160 -113.787468 105.519653
26 104.552910 9.721220 -10.420293 -175.569016 -24.291685 -111.264969 105.519653
